<svg xmlns="http://www.w3.org/2000/svg" version="1.1" xmlns:xlink="http://www.w3.org/1999/xlink" xmlns:svgjs="http://svgjs.dev/svgjs" width="1500" height="1500" viewBox="0 0 1500 1500"><rect width="1500" height="1500" fill="#ffffff"></rect><g transform="matrix(0.6666666666666666,0,0,0.6666666666666666,250,250)"><svg viewBox="0 0 280 280" data-background-color="#ffffff" preserveAspectRatio="xMidYMid meet" height="1500" width="1500" xmlns="http://www.w3.org/2000/svg" xmlns:xlink="http://www.w3.org/1999/xlink"><g id="tight-bounds" transform="matrix(1,0,0,1,0,0)"><svg viewBox="0 0 280 280" height="280" width="280"><g><svg viewBox="0 0 280 280" height="280" width="280"><g><svg viewBox="0 0 280 280" height="280" width="280"><g id="textblocktransform"><svg viewBox="0 0 280 280" height="280" width="280" id="textblock"><g><svg viewBox="0 0 280 280" height="280" width="280"><g transform="matrix(1,0,0,1,57.50420886156945,57.50420886156945)"><svg viewBox="0 0 164.9915822768611 164.9915822768611" height="164.9915822768611" width="164.9915822768611"><g id="icon-0"><circle r="82" cx="82.49579113843055" cy="82.49579113843055" fill="#000000" data-fill-palette-color="accent"></circle><svg xmlns="http://www.w3.org/2000/svg" xmlns:xlink="http://www.w3.org/1999/xlink" version="1.1" x="24.748737341529164" y="24.74873734152917" viewBox="4.753 11.427999999999997 90.082 73.906" enable-background="new 0 0 100 100" xml:space="preserve" height="115.49410759380275" width="115.49410759380275" class="icon-xg-0" data-fill-palette-color="quaternary" id="xg-0"><path fill-rule="evenodd" clip-rule="evenodd" d="M36.135 61.376c-1.571 2.502-5.04 4.251-9.042 4.251H13.794c-4.002 0-7.471-1.749-9.041-4.251h0.585c0-0.059 0.01-0.116 0.031-0.177l13.704-38.127c-0.718-0.025-1.437-0.143-2.163-0.371-0.688-0.218-1.071-0.952-0.854-1.641 0.217-0.688 0.952-1.071 1.64-0.854 2.707 0.855 5.794-0.683 9.261-2.41 5.848-2.913 12.652-6.302 21.641-1.401v-4.967h1.804v4.879c8.858-4.694 15.588-1.343 21.379 1.541 3.467 1.727 6.554 3.265 9.261 2.41 0.688-0.217 1.424 0.165 1.641 0.853 0.217 0.689-0.166 1.423-0.854 1.64-0.57 0.181-1.138 0.291-1.7 0.343l13.785 38.352c0.021 0.06 0.032 0.118 0.032 0.176h0.889c-1.592 2.503-5.107 4.251-9.165 4.251H72.19c-4.057 0-7.573-1.748-9.166-4.251h0.893c0-0.058 0.01-0.116 0.029-0.176L77.769 22.99c-1.963-0.333-3.938-1.218-6.021-2.24-0.372-0.183-0.749-0.371-1.129-0.561-4.966-2.474-10.695-5.327-17.875-2.116-0.679 0.303-1.37 0.66-2.076 1.078-0.085 0.05-0.173 0.089-0.264 0.119V23h1.04v36.072h1.159v16.284c3.522 0.456 6.588 1.742 8.7 3.537h3.667V82.5h1.031v2.834h-33.11V82.5h1.546v-3.606h3.797c2.061-1.75 5.029-3.019 8.443-3.503V59.072h0.902V23h1.021v-3.727c-0.18-0.019-0.359-0.076-0.526-0.174-0.575-0.34-1.142-0.64-1.699-0.903-7.355-3.485-13.199-0.576-18.25 1.941-0.477 0.237-0.947 0.472-1.412 0.698-1.778 0.866-3.48 1.617-5.167 1.991l13.793 38.374c0.021 0.061 0.03 0.118 0.03 0.177H36.135L36.135 61.376zM92.87 61.622L79.454 24.295v37.327H92.87L92.87 61.622zM78.408 61.622V61.62 24.295L65.027 61.522l-0.036 0.1H78.408L78.408 61.622zM20.876 24.048v37.328h13.417L20.876 24.048 20.876 24.048zM6.413 61.376H19.83v-0.003V24.048L6.449 61.276 6.413 61.376z" fill="#ffffff" data-fill-palette-color="quaternary"></path></svg></g></svg></g><g id="text-0"><path d="M29.642 93.022c-0.639 2.909-1.165 4.988-1.576 6.239v0c-0.9 2.736-2.124 4.745-3.672 6.026-1.548 1.281-3.651 1.485-6.309 0.61v0l-3.244-1.067c-2.58-0.849-4.017-2.318-4.312-4.408v0c-0.16-1.006-0.021-2.173 0.416-3.502v0c0.403-1.225 1.012-2.396 1.828-3.514 0.815-1.118 1.69-2 2.625-2.645v0c-1.433-0.472-2.71-0.43-3.832 0.125-1.121 0.555-2.072 2.018-2.852 4.39v0l-1.642-0.67c0.823-2.502 1.827-4.214 3.012-5.139 1.185-0.924 2.37-1.343 3.554-1.256 1.184 0.087 2.637 0.413 4.356 0.978v0zM17.078 91.314c-0.847 0.905-1.652 1.904-2.415 2.996-0.764 1.092-1.312 2.146-1.647 3.162v0c-0.866 2.632 0.017 4.381 2.649 5.246v0l3.401 1.119c1.694 0.557 3.118 0.376 4.272-0.543 1.155-0.92 2.088-2.461 2.8-4.624v0c0.369-1.121 0.697-2.471 0.986-4.051v0z" fill="#000000" data-fill-palette-color="primary"></path><path d="M49.922 74.861l-23.073-17.989 1.417-1.817 1.528 1.453c-0.172-1.073-0.112-2.131 0.179-3.174 0.291-1.043 0.74-1.953 1.348-2.733v0c1.569-2.012 3.346-3.087 5.332-3.225 1.986-0.138 3.91 0.518 5.771 1.968v0l4.51 3.517c1.969 1.535 3.048 3.263 3.237 5.185 0.189 1.921-0.425 3.791-1.842 5.608v0c-0.725 0.93-1.496 1.651-2.312 2.162-0.816 0.512-1.768 0.795-2.856 0.852v0l7.464 5.82zM40.877 51.06c-1.579-1.231-3.051-1.709-4.414-1.432-1.363 0.276-2.492 0.988-3.386 2.134v0c-0.911 1.168-1.344 2.448-1.298 3.84 0.045 1.392 0.789 2.702 2.231 3.931v0l5.127 3.998c1.406 1.096 2.757 1.506 4.051 1.228 1.295-0.278 2.457-1.076 3.486-2.396v0c0.928-1.19 1.356-2.465 1.286-3.824-0.071-1.359-0.777-2.562-2.118-3.608v0z" fill="#000000" data-fill-palette-color="primary"></path><path d="M84.479 31.817c-0.522 1.049-1.24 2.04-2.152 2.971-0.913 0.932-1.91 1.722-2.992 2.372v0c-1.741 1.045-3.38 1.444-4.919 1.2-1.538-0.245-2.823-1.225-3.853-2.943v0l-4.341-7.233c-1.143-1.905-1.439-3.744-0.886-5.515 0.553-1.771 1.805-3.243 3.758-4.414v0c1.952-1.172 3.79-1.562 5.511-1.172 1.722 0.39 3.14 1.515 4.256 3.373v0l2.752 4.587-10.366 7.036 1.292 2.152c0.678 1.129 1.55 1.757 2.618 1.885 1.068 0.127 2.19-0.162 3.366-0.869v0c1.647-0.988 3.07-2.482 4.269-4.481v0zM76.737 21.395c-0.875-1.458-1.951-2.212-3.229-2.262-1.277-0.049-2.422 0.229-3.433 0.836v0c-1.294 0.776-2.152 1.771-2.576 2.986-0.423 1.214-0.183 2.573 0.72 4.079v0l1.863 3.105 8.497-5.675z" fill="#000000" data-fill-palette-color="primary"></path><path d="M124.997 20.753l-6.527-6.981-3.407 8.929-2.665 0.522 4.328-11.29-8.294-8.94 2.544-0.499 6.671 7.078 3.505-9.073 2.544-0.499-4.345 11.419 8.311 8.811z" fill="#000000" data-fill-palette-color="primary"></path><path d="M191.413 31.611l12.014-26.179 2.094 0.961-12.014 26.179z" fill="#000000" data-fill-palette-color="primary"></path><path d="M229.153 59.926c-2.345-1.836-3.991-3.211-4.94-4.123v0c-2.076-1.997-3.356-3.97-3.84-5.92-0.484-1.95 0.244-3.934 2.183-5.951v0l2.368-2.461c1.883-1.957 3.829-2.616 5.84-1.976v0c0.976 0.291 1.968 0.922 2.976 1.891v0c0.929 0.894 1.721 1.95 2.375 3.17 0.654 1.219 1.07 2.39 1.247 3.512v0c1.046-1.087 1.562-2.257 1.547-3.508-0.015-1.251-0.922-2.742-2.721-4.473v0l1.316-1.189c1.898 1.826 3.007 3.473 3.326 4.94 0.32 1.468 0.184 2.717-0.407 3.748-0.591 1.03-1.514 2.198-2.769 3.503v0zM236.136 49.343c-0.449-1.155-1.001-2.314-1.654-3.475-0.653-1.161-1.365-2.112-2.136-2.854v0c-1.997-1.921-3.956-1.883-5.877 0.115v0l-2.482 2.58c-1.236 1.285-1.69 2.647-1.361 4.086 0.329 1.439 1.314 2.948 2.955 4.526v0c0.85 0.818 1.925 1.699 3.224 2.644v0z" fill="#000000" data-fill-palette-color="primary"></path><path d="M250.543 96.478l13.631-10.449-16.958 2.787-1.262-2.906 16.403-13.986 0.967 2.227-14.542 12.28 18.573-2.995 0.934 2.152-14.918 11.412 18.917-2.202 0.967 2.227-21.451 2.359z" fill="#000000" data-fill-palette-color="primary"></path><path d="M6.882 140c0-1.823 1.478-3.301 3.301-3.301 1.823 0 3.301 1.478 3.301 3.301 0 1.823-1.478 3.301-3.301 3.301-1.823 0-3.301-1.478-3.301-3.301z" fill="#000000" data-fill-palette-color="primary"></path><path d="M266.125 140c0-1.823 1.478-3.301 3.301-3.301 1.823 0 3.301 1.478 3.301 3.301 0 1.823-1.478 3.301-3.301 3.301-1.823 0-3.301-1.478-3.301-3.301z" fill="#000000" data-fill-palette-color="primary"></path></g><g id="text-1"><path d="M10.059 193.421c-1.213-2.72-2.025-4.705-2.436-5.956v0c-0.9-2.736-1.108-5.079-0.623-7.029 0.485-1.95 2.056-3.362 4.714-4.237v0l3.244-1.067c2.58-0.849 4.608-0.52 6.086 0.986v0c0.726 0.714 1.308 1.736 1.745 3.065v0c0.403 1.225 0.608 2.529 0.616 3.913 0.008 1.384-0.173 2.613-0.542 3.687v0c1.433-0.472 2.436-1.264 3.009-2.377 0.573-1.113 0.469-2.854-0.312-5.225v0l1.72-0.436c0.823 2.502 1.032 4.476 0.627 5.923-0.405 1.447-1.109 2.488-2.113 3.121-1.004 0.634-2.367 1.234-4.087 1.8v0zM21.183 187.336c0.144-1.231 0.198-2.513 0.164-3.845-0.034-1.332-0.218-2.506-0.552-3.522v0c-0.866-2.632-2.615-3.515-5.247-2.649v0l-3.401 1.119c-1.694 0.557-2.732 1.549-3.115 2.974-0.383 1.426-0.218 3.22 0.493 5.383v0c0.369 1.121 0.906 2.402 1.612 3.845v0z" fill="#000000" data-fill-palette-color="primary"></path><path d="M20.034 228.441l23.073-17.989 1.417 1.817-1.782 1.128c1.083 0.095 2.094 0.411 3.035 0.948 0.94 0.537 1.714 1.194 2.321 1.973v0c1.569 2.012 2.178 3.998 1.828 5.958-0.35 1.96-1.456 3.665-3.316 5.116v0l-4.511 3.517c-1.969 1.535-3.908 2.16-5.817 1.874-1.909-0.285-3.573-1.337-4.99-3.153v0c-0.725-0.93-1.236-1.854-1.533-2.77-0.297-0.916-0.34-1.909-0.13-2.978v0l-7.464 5.82zM45.323 225.473c1.579-1.231 2.401-2.542 2.465-3.931 0.065-1.39-0.35-2.658-1.244-3.804v0c-0.911-1.168-2.047-1.9-3.408-2.196-1.361-0.296-2.813 0.106-4.356 1.205v0l-5.127 3.998c-1.406 1.096-2.133 2.306-2.179 3.63-0.047 1.323 0.445 2.645 1.473 3.964v0c0.928 1.19 2.059 1.916 3.395 2.18 1.336 0.263 2.674-0.128 4.016-1.174v0z" fill="#000000" data-fill-palette-color="primary"></path><path d="M75.353 263.39c-1.171 0.033-2.383-0.134-3.634-0.501-1.251-0.367-2.418-0.875-3.5-1.525v0c-1.741-1.045-2.865-2.303-3.373-3.775-0.508-1.473-0.247-3.067 0.783-4.785v0l4.341-7.233c1.143-1.905 2.627-3.031 4.449-3.377 1.823-0.346 3.711 0.067 5.664 1.239v0c1.952 1.172 3.161 2.609 3.627 4.312 0.466 1.703 0.141 3.484-0.974 5.342v0l-2.753 4.587-11.086-5.837-1.292 2.153c-0.678 1.129-0.821 2.195-0.43 3.196 0.39 1.002 1.174 1.856 2.35 2.562v0c1.647 0.988 3.634 1.541 5.963 1.659v0zM80.908 251.654c0.875-1.458 1.034-2.763 0.476-3.913-0.557-1.15-1.342-2.029-2.353-2.635v0c-1.294-0.776-2.576-1.066-3.846-0.869-1.27 0.198-2.357 1.049-3.261 2.555v0l-1.863 3.105 9.005 4.827z" fill="#000000" data-fill-palette-color="primary"></path><path d="M121.031 279.477l-3.408-8.928-6.526 6.981-2.665-0.523 8.271-8.819-4.305-11.411 2.544 0.499 3.505 9.073 6.671-7.078 2.544 0.499-8.335 8.932 4.369 11.298z" fill="#000000" data-fill-palette-color="primary"></path><path d="M200.011 267.126l-12.013-26.18 2.094-0.961 12.014 26.18z" fill="#000000" data-fill-palette-color="primary"></path><path d="M243.444 234.932c-1.926 2.271-3.364 3.863-4.312 4.776v0c-2.076 1.997-4.098 3.199-6.066 3.607-1.967 0.408-3.921-0.396-5.86-2.413v0l-2.368-2.462c-1.883-1.957-2.465-3.928-1.747-5.912v0c0.329-0.964 0.998-1.93 2.006-2.901v0c0.929-0.894 2.016-1.644 3.259-2.25 1.244-0.606 2.43-0.976 3.558-1.109v0c-1.046-1.087-2.194-1.648-3.445-1.682-1.251-0.034-2.776 0.814-4.575 2.544v0l-1.138-1.361c1.898-1.826 3.587-2.869 5.067-3.131 1.48-0.262 2.723-0.078 3.729 0.552 1.006 0.631 2.137 1.599 3.392 2.904v0zM233.141 227.543c-1.172 0.404-2.351 0.91-3.537 1.517-1.186 0.607-2.164 1.282-2.935 2.024v0c-1.997 1.921-2.035 3.879-0.114 5.876v0l2.481 2.581c1.236 1.285 2.579 1.791 4.031 1.519 1.451-0.272 2.997-1.198 4.637-2.777v0c0.85-0.818 1.773-1.857 2.767-3.118v0z" fill="#000000" data-fill-palette-color="primary"></path><path d="M269.453 191.732l-16.942-2.825 13.615 10.487-1.262 2.907-21.417-2.436 0.967-2.227 18.9 2.24-14.869-11.525 0.934-2.151 18.524 3.108-14.525-12.318 0.967-2.227 16.37 14.061z" fill="#000000" data-fill-palette-color="primary"></path></g></svg></g></svg></g></svg></g></svg></g><defs></defs></svg><rect width="280" height="280" fill="none" stroke="none" visibility="hidden"></rect></g></svg></g></svg>