<svg xmlns="http://www.w3.org/2000/svg" version="1.1" xmlns:xlink="http://www.w3.org/1999/xlink" xmlns:svgjs="http://svgjs.dev/svgjs" width="1500" height="1500" viewBox="0 0 1500 1500"><rect width="1500" height="1500" fill="#ffffff"></rect><g transform="matrix(0.6666666666666666,0,0,0.6666666666666666,249.39393939393938,438.5856950067477)"><svg viewBox="0 0 396 247" data-background-color="#ffffff" preserveAspectRatio="xMidYMid meet" height="935" width="1500" xmlns="http://www.w3.org/2000/svg" xmlns:xlink="http://www.w3.org/1999/xlink"><g id="tight-bounds" transform="matrix(1,0,0,1,0.2400000000000091,-0.09999999999999432)"><svg viewBox="0 0 395.52 247.2" height="247.2" width="395.52"><g><svg></svg></g><g><svg viewBox="0 0 395.52 247.2" height="247.2" width="395.52"><g transform="matrix(1,0,0,1,75.54432,89.38801455454829)"><svg viewBox="0 0 244.43135999999998 68.4239708909034" height="68.4239708909034" width="244.43135999999998"><g><svg viewBox="0 0 244.43135999999998 68.4239708909034" height="68.4239708909034" width="244.43135999999998"><g><svg viewBox="0 0 244.43135999999998 68.4239708909034" height="68.4239708909034" width="244.43135999999998"><g><svg viewBox="0 0 244.43135999999998 68.4239708909034" height="68.4239708909034" width="244.43135999999998"><g id="textblocktransform"><svg viewBox="0 0 244.43135999999998 68.4239708909034" height="68.4239708909034" width="244.43135999999998" id="textblock"><g><svg viewBox="0 0 244.43135999999998 68.4239708909034" height="68.4239708909034" width="244.43135999999998"><g transform="matrix(1,0,0,1,0,0)"><svg width="244.43135999999998" viewBox="4.27 -33.08 156.19 43.72" height="68.4239708909034" data-palette-color="#ff908b"><path d="M8.23 10.64L4.27 10.64 4.27-24.98 7.57-24.98 7.93-22.09 8.03-22.09Q9.74-23.49 11.83-24.55 13.92-25.61 16.06-25.61L16.06-25.61Q20.95-25.61 23.49-22.14 26.03-18.68 26.03-12.87L26.03-12.87Q26.03-8.62 24.51-5.6 23-2.59 20.52-0.99 18.04 0.61 15.14 0.61L15.14 0.61Q13.43 0.61 11.67-0.15 9.91-0.9 8.13-2.29L8.13-2.29 8.23 2.1 8.23 10.64ZM14.53-2.71L14.53-2.71Q17.72-2.71 19.84-5.43 21.95-8.15 21.95-12.82L21.95-12.82Q21.95-17.04 20.36-19.68 18.77-22.31 15.14-22.31L15.14-22.31Q13.5-22.31 11.82-21.4 10.13-20.48 8.23-18.75L8.23-18.75 8.23-5.4Q10.01-3.93 11.63-3.32 13.26-2.71 14.53-2.71ZM38.52 0.61L38.52 0.61Q35.4 0.61 33.3-1.21 31.2-3.03 31.2-6.42L31.2-6.42Q31.2-10.52 34.92-12.72 38.64-14.92 46.68-15.82L46.68-15.82Q46.68-17.48 46.23-18.97 45.77-20.46 44.64-21.41 43.5-22.36 41.4-22.36L41.4-22.36Q39.18-22.36 37.24-21.51 35.3-20.65 33.84-19.73L33.84-19.73 32.3-22.36Q33.96-23.51 36.48-24.56 39.01-25.61 42.04-25.61L42.04-25.61Q46.6-25.61 48.62-22.8 50.63-20 50.63-15.41L50.63-15.41 50.63 0 47.34 0 47.02-3.03 46.87-3.03Q45.07-1.54 42.95-0.46 40.84 0.61 38.52 0.61ZM39.6-2.56L39.6-2.56Q41.48-2.56 43.12-3.44 44.77-4.32 46.68-5.96L46.68-5.96 46.68-13.18Q42.36-12.65 39.82-11.77 37.28-10.89 36.18-9.64 35.08-8.4 35.08-6.74L35.08-6.74Q35.08-4.52 36.4-3.54 37.72-2.56 39.6-2.56ZM62.57 0L58.61 0 58.61-24.98 61.91-24.98 62.28-20.46 62.37-20.46Q63.69-22.8 65.52-24.21 67.35-25.61 69.48-25.61L69.48-25.61Q71.09-25.61 72.11-25.1L72.11-25.1 71.24-21.73Q70.7-21.9 70.22-21.97 69.75-22.05 68.96-22.05L68.96-22.05Q67.38-22.05 65.62-20.74 63.86-19.43 62.57-16.16L62.57-16.16 62.57 0ZM84 0.61L84 0.61Q80.07 0.61 78.53-1.66 76.99-3.93 76.99-7.62L76.99-7.62 76.99-21.73 73.28-21.73 73.28-24.78 77.21-24.98 77.68-33.08 80.97-33.08 80.97-24.98 87.83-24.98 87.83-21.73 80.97-21.73 80.97-7.52Q80.97-5.2 81.83-3.91 82.68-2.61 84.88-2.61L84.88-2.61Q85.54-2.61 86.27-2.75 87-2.88 87.76-3.22L87.76-3.22 88.64-0.44Q87.64 0 86.44 0.31 85.25 0.61 84 0.61ZM97.45 0L93.5 0 93.5-24.98 96.79-24.98 97.16-21.39 97.26-21.39Q99.06-23.17 101.09-24.39 103.12-25.61 105.7-25.61L105.7-25.61Q109.61-25.61 111.44-23.13 113.27-20.65 113.27-15.87L113.27-15.87 113.27 0 109.37 0 109.37-15.36Q109.37-18.92 108.22-20.56 107.07-22.19 104.46-22.19L104.46-22.19Q102.53-22.19 100.97-21.17 99.4-20.14 97.45-18.19L97.45-18.19 97.45 0ZM131.55 0.61L131.55 0.61Q128.26 0.61 125.56-0.95 122.86-2.51 121.26-5.44 119.67-8.37 119.67-12.45L119.67-12.45Q119.67-16.53 121.26-19.48 122.86-22.44 125.43-24.02 127.99-25.61 130.85-25.61L130.85-25.61Q135.56-25.61 138.15-22.46 140.73-19.31 140.73-13.89L140.73-13.89Q140.73-12.52 140.59-11.57L140.59-11.57 123.57-11.57Q123.77-7.5 126.06-5 128.36-2.51 132.02-2.51L132.02-2.51Q133.9-2.51 135.46-3.02 137.02-3.52 138.37-4.42L138.37-4.42 139.76-1.95Q138.12-0.83 136.14-0.11 134.17 0.61 131.55 0.61ZM123.52-14.43L123.52-14.43 137.24-14.43Q137.24-18.36 135.58-20.41 133.92-22.46 130.9-22.46L130.9-22.46Q128.19-22.46 126.05-20.36 123.91-18.26 123.52-14.43ZM150.91 0L146.96 0 146.96-24.98 150.25-24.98 150.62-20.46 150.72-20.46Q152.04-22.8 153.87-24.21 155.7-25.61 157.82-25.61L157.82-25.61Q159.43-25.61 160.46-25.1L160.46-25.1 159.58-21.73Q159.04-21.9 158.57-21.97 158.09-22.05 157.31-22.05L157.31-22.05Q155.72-22.05 153.96-20.74 152.21-19.43 150.91-16.16L150.91-16.16 150.91 0Z" opacity="1" transform="matrix(1,0,0,1,0,0)" fill="#ff908b" class="wordmark-text-0" data-fill-palette-color="primary" id="text-0"></path></svg></g></svg></g></svg></g></svg></g></svg></g></svg></g></svg></g><g><path d="M245.816 0c68.262 0 123.6 55.338 123.6 123.6 0 68.262-55.338 123.6-123.6 123.6-53.409 0-98.905-33.875-116.177-81.311h3.29c17.127 45.698 61.208 78.226 112.887 78.226 66.558 0 120.515-53.956 120.514-120.515 0-66.558-53.956-120.515-120.514-120.515-51.678 0-95.759 32.528-112.887 78.226l-3.29 0c17.271-47.436 62.768-81.311 116.177-81.311z" fill="#ff908b" stroke="transparent" data-fill-palette-color="tertiary"></path></g></svg></g><defs></defs></svg><rect width="395.52" height="247.2" fill="none" stroke="none" visibility="hidden"></rect></g></svg></g></svg>