<svg xmlns="http://www.w3.org/2000/svg" version="1.1" xmlns:xlink="http://www.w3.org/1999/xlink" xmlns:svgjs="http://svgjs.dev/svgjs" width="1500" height="1500" viewBox="0 0 1500 1500"><rect width="1500" height="1500" fill="#ffffff"></rect><g transform="matrix(0.6666666666666666,0,0,0.6666666666666666,249.78425655976667,249.78425655976673)"><svg viewBox="0 0 343 343" data-background-color="#000000" preserveAspectRatio="xMidYMid meet" height="1500" width="1500" xmlns="http://www.w3.org/2000/svg" xmlns:xlink="http://www.w3.org/1999/xlink"><g id="tight-bounds" transform="matrix(1,0,0,1,0.0740000000000407,0.07400000000001228)"><svg viewBox="0 0 342.85155851775386 342.85155851775386" height="342.85155851775386" width="342.85155851775386"><g><svg></svg></g><g><svg viewBox="0 0 342.85155851775386 342.85155851775386" height="342.85155851775386" width="342.85155851775386"><g><path d="M0 171.426c0-94.676 76.75-171.426 171.426-171.426 94.676 0 171.426 76.75 171.426 171.426 0 94.676-76.75 171.426-171.426 171.426-94.676 0-171.426-76.75-171.426-171.426zM171.426 337.292c91.605 0 165.866-74.261 165.866-165.866 0-91.605-74.261-165.866-165.866-165.867-91.605 0-165.866 74.261-165.867 165.867 0 91.605 74.261 165.866 165.867 165.866z" data-fill-palette-color="tertiary" fill="#000000" stroke="transparent"></path><ellipse rx="164.56874808852186" ry="164.56874808852186" cx="171.42577925887693" cy="171.42577925887693" fill="#000000" stroke="transparent" stroke-width="0" fill-opacity="1" data-fill-palette-color="tertiary"></ellipse></g><g transform="matrix(1,0,0,1,64.84655864529837,92.12407542269568)"><svg viewBox="0 0 213.1584412271571 158.6034076723625" height="158.6034076723625" width="213.1584412271571"><g><svg viewBox="0 0 213.1584412271571 158.6034076723625" height="158.6034076723625" width="213.1584412271571"><g><svg viewBox="0 0 213.1584412271571 158.6034076723625" height="158.6034076723625" width="213.1584412271571"><g transform="matrix(1,0,0,1,0,96.95646763181549)"><svg viewBox="0 0 213.1584412271571 61.64694004054701" height="61.64694004054701" width="213.1584412271571"><g id="textblocktransform"><svg viewBox="0 0 213.1584412271571 61.64694004054701" height="61.64694004054701" width="213.1584412271571" id="textblock"><g><svg viewBox="0 0 213.1584412271571 61.64694004054701" height="61.64694004054701" width="213.1584412271571"><g transform="matrix(1,0,0,1,0,0)"><svg width="213.1584412271571" viewBox="3.42 -30.93 139.78 40.42999999999999" height="61.64694004054701" data-palette-color="#000000"><path d="M6.54-1.05L6.54-1.05 6.54 9.5 3.42 9.5 3.42-24.05 5.98-24.05 6.27-22.36Q9.42-24.41 13.18-24.41L13.18-24.41Q17.02-24.41 19.2-21.39 21.39-18.36 21.39-12.04L21.39-12.04Q21.39-5.49 19.17-2.62 16.94 0.24 12.45 0.24L12.45 0.24Q9.16 0.24 6.54-1.05ZM6.54-19.75L6.54-19.75 6.54-3.34Q8.69-2.34 11.3-2.34L11.3-2.34 12.01-2.34Q15.33-2.34 16.8-4.58 18.26-6.81 18.26-11.99L18.26-11.99Q18.26-17.07 16.96-19.46 15.65-21.85 12.79-21.85L12.79-21.85Q10.18-21.85 6.54-19.75ZM29.56-6.79L29.56-6.79Q29.56-2.25 34.84-2.25L34.84-2.25Q36.4-2.25 38.02-2.71 39.65-3.17 40.7-3.86L40.7-3.86 40.7-11.55 39.33-11.55Q38.16-11.55 37.18-11.49 36.2-11.43 35.01-11.28 33.81-11.13 32.91-10.79 32-10.45 31.21-9.95 30.42-9.45 29.99-8.64 29.56-7.84 29.56-6.79ZM28.64-20.58L28.02-23Q32.35-24.41 35.54-24.41L35.54-24.41Q37.35-24.41 38.79-23.91 40.23-23.41 41.37-22.35 42.5-21.29 43.12-19.45 43.75-17.6 43.75-15.06L43.75-15.06 43.75 0 41.5 0 41.01-1.61Q40.13-0.9 38.18-0.33 36.23 0.24 34.35 0.24L34.35 0.24Q30.83 0.24 28.73-1.59 26.63-3.42 26.63-6.93L26.63-6.93Q26.63-8.06 26.99-9.02 27.34-9.99 28.21-10.89 29.07-11.79 30.41-12.44 31.74-13.09 33.81-13.46 35.89-13.84 38.55-13.84L38.55-13.84 40.7-13.84 40.7-14.62Q40.67-18.63 39.29-20.24 37.91-21.85 35.4-21.85L35.4-21.85Q35.03-21.85 34.6-21.81 34.18-21.78 33.86-21.74 33.54-21.7 32.99-21.59 32.44-21.48 32.19-21.45 31.93-21.41 31.27-21.25 30.61-21.09 30.44-21.04 30.27-21 29.5-20.8 28.73-20.61 28.64-20.58L28.64-20.58ZM53.78-24.05L53.9-21.95Q55.34-22.92 57.55-23.63 59.76-24.34 61.62-24.41L61.62-24.41 61.62-21.8Q59.49-21.8 57.31-21.15 55.12-20.51 53.93-19.63L53.93-19.63 53.93 0 50.8 0 50.8-24.05 53.78-24.05ZM74.65 0.24L74.65 0.24Q72.7 0.2 71.44-0.39 70.18-0.98 69.47-2.23 68.77-3.49 68.5-5.19 68.23-6.88 68.23-9.47L68.23-9.47 68.23-21.85 64.49-21.85 64.49-24.05 68.33-24.05 68.94-30.93 71.35-30.93 71.35-24.05 78.87-24.05 78.87-21.85 71.35-21.85 71.35-9.42Q71.35-7.08 71.61-5.62 71.87-4.15 72.47-3.45 73.06-2.76 73.72-2.55 74.38-2.34 75.48-2.34L75.48-2.34Q78-2.34 79.14-2.51L79.14-2.51 79.26 0Q77.31 0.24 74.65 0.24ZM87.78-20.07L87.78-20.07 87.78 0 84.66 0 84.66-24.05 87.22-24.05 87.44-22.49Q89.83-23.61 91.45-24.01 93.06-24.41 94.91-24.41L94.91-24.41Q98.62-24.41 100.39-22.39 102.16-20.36 102.16-16.19L102.16-16.19 102.16 0 99.04 0 99.04-16.31Q99.04-19.29 98.1-20.57 97.16-21.85 94.74-21.85L94.74-21.85Q91.03-21.85 87.78-20.07ZM117.69-21.85L117.69-21.85Q114.61-21.85 112.98-19.71 111.34-17.58 111.05-13.65L111.05-13.65 123.43-13.65 123.43-14.87Q123.43-18.07 121.87-19.96 120.32-21.85 117.69-21.85ZM118.1-2.34L118.1-2.34Q121.86-2.34 124.94-4.3L124.94-4.3 125.89-1.83Q124.23-0.81 122.18-0.28 120.13 0.24 118.27 0.24L118.27 0.24Q113.34 0.24 110.63-2.73 107.92-5.71 107.92-12.11L107.92-12.11Q107.92-18.24 110.56-21.33 113.2-24.41 117.66-24.41L117.66-24.41Q121.69-24.41 124.01-21.78 126.33-19.14 126.33-14.75L126.33-14.75Q126.33-13.75 126.13-11.45L126.13-11.45 111.05-11.45Q111.07-9.28 111.49-7.63 111.9-5.98 112.54-4.99 113.17-4 114.11-3.39 115.05-2.78 116-2.56 116.96-2.34 118.1-2.34ZM135.36-24.05L135.48-21.95Q136.92-22.92 139.13-23.63 141.34-24.34 143.2-24.41L143.2-24.41 143.2-21.8Q141.07-21.8 138.89-21.15 136.7-20.51 135.51-19.63L135.51-19.63 135.51 0 132.38 0 132.38-24.05 135.36-24.05Z" opacity="1" transform="matrix(1,0,0,1,0,0)" fill="#ffffff" class="wordmark-text-0" data-fill-palette-color="quaternary" id="text-0"></path></svg></g></svg></g></svg></g></svg></g><g transform="matrix(1,0,0,1,40.713262274387006,0)"><svg viewBox="0 0 131.7319166783831 82.40310461480331" height="82.40310461480331" width="131.7319166783831"><g><svg xmlns="http://www.w3.org/2000/svg" xmlns:xlink="http://www.w3.org/1999/xlink" version="1.1" x="0" y="0" viewBox="406.039 302.571 378.4720000000001 236.74800000000005" enable-background="new 0 0 1190.55 841.891" xml:space="preserve" height="82.40310461480331" width="131.7319166783831" class="icon-icon-0" data-fill-palette-color="quaternary" id="icon-0"><g fill="#000000" data-fill-palette-color="quaternary"><g fill="#000000" data-fill-palette-color="quaternary"><rect x="406.044" y="413.871" width="99.524" height="14.149" fill="#ffffff" data-fill-palette-color="quaternary"></rect></g><g fill="#000000" data-fill-palette-color="quaternary"><rect x="659.089" y="302.571" width="125.422" height="14.149" fill="#ffffff" data-fill-palette-color="quaternary"></rect></g><g fill="#000000" data-fill-palette-color="quaternary"><rect x="590.902" y="330.398" width="193.604" height="14.149" fill="#ffffff" data-fill-palette-color="quaternary"></rect></g><g fill="#000000" data-fill-palette-color="quaternary"><rect x="589.615" y="386.051" width="194.891" height="14.149" fill="#ffffff" data-fill-palette-color="quaternary"></rect></g><g fill="#000000" data-fill-palette-color="quaternary"><rect x="562.048" y="358.225" width="222.458" height="14.149" fill="#ffffff" data-fill-palette-color="quaternary"></rect></g><g fill="#000000" data-fill-palette-color="quaternary"><rect x="684.98" y="413.871" width="99.525" height="14.149" fill="#ffffff" data-fill-palette-color="quaternary"></rect></g><g fill="#000000" data-fill-palette-color="quaternary"><rect x="406.039" y="497.345" width="198.525" height="14.148" fill="#ffffff" data-fill-palette-color="quaternary"></rect></g><g fill="#000000" data-fill-palette-color="quaternary"><rect x="406.039" y="441.694" width="198.525" height="14.148" fill="#ffffff" data-fill-palette-color="quaternary"></rect></g><g fill="#000000" data-fill-palette-color="quaternary"><rect x="406.039" y="469.518" width="222.457" height="14.148" fill="#ffffff" data-fill-palette-color="quaternary"></rect></g><g fill="#000000" data-fill-palette-color="quaternary"><rect x="406.039" y="525.171" width="125.415" height="14.148" fill="#ffffff" data-fill-palette-color="quaternary"></rect></g></g></svg></g></svg></g><g></g></svg></g></svg></g></svg></g></svg></g><defs></defs></svg><rect width="342.85155851775386" height="342.85155851775386" fill="none" stroke="none" visibility="hidden"></rect></g></svg></g></svg>