<svg xmlns="http://www.w3.org/2000/svg" version="1.1" xmlns:xlink="http://www.w3.org/1999/xlink" xmlns:svgjs="http://svgjs.dev/svgjs" width="1500" height="1500" viewBox="0 0 1500 1500"><rect width="1500" height="1500" fill="#ffffff"></rect><g transform="matrix(0.6666666666666666,0,0,0.6666666666666666,249.39393939393938,628.5065079831879)"><svg viewBox="0 0 396 96" data-background-color="#ffffff" preserveAspectRatio="xMidYMid meet" height="363" width="1500" xmlns="http://www.w3.org/2000/svg" xmlns:xlink="http://www.w3.org/1999/xlink"><g id="tight-bounds" transform="matrix(1,0,0,1,0.2400000000000091,0.19576542815687503)"><svg viewBox="0 0 395.52 95.60846914368624" height="95.60846914368624" width="395.52"><g><svg viewBox="0 0 664.20792751365 160.5580075411625" height="95.60846914368624" width="395.52"><g transform="matrix(1,0,0,1,268.68792751365004,28.90451522949686)"><svg viewBox="0 0 395.5199999999999 102.74897708216879" height="102.74897708216879" width="395.5199999999999"><g id="textblocktransform"><svg viewBox="0 0 395.5199999999999 102.74897708216879" height="102.74897708216879" width="395.5199999999999" id="textblock"><g><svg viewBox="0 0 395.5199999999999 102.74897708216879" height="102.74897708216879" width="395.5199999999999"><g transform="matrix(1,0,0,1,0,0)"><svg width="395.5199999999999" viewBox="3.3 -32.98 174.69 45.379999999999995" height="102.74897708216879" data-palette-color="#336a86"><path d="M18.85-25.61L18.85-25.61Q22.41-25.61 24.72-24.01 27.03-22.41 28.16-19.62 29.3-16.82 29.3-13.21L29.3-13.21Q29.3-9.3 27.97-6.18 26.64-3.05 24.05-1.22 21.46 0.61 17.63 0.61L17.63 0.61Q15.65 0.61 14.37 0.16 13.09-0.29 12.32-0.92 11.55-1.54 11.11-2.05L11.11-2.05 11.01-2.05 11.01 8.35Q11.01 8.94 10.77 9.25L10.77 9.25Q9.74 10.6 7.76 12.16L7.76 12.16Q7.42 12.4 7.15 12.4L7.15 12.4Q6.86 12.4 6.54 12.16L6.54 12.16Q5.49 11.35 4.77 10.64 4.05 9.94 3.54 9.25L3.54 9.25Q3.3 8.94 3.3 8.35L3.3 8.35 3.3-21.75Q3.3-22.34 3.54-22.66L3.54-22.66Q4.05-23.34 4.77-24.05 5.49-24.76 6.54-25.56L6.54-25.56Q6.86-25.81 7.2-25.81L7.2-25.81Q7.52-25.81 7.86-25.56L7.86-25.56Q8.89-24.76 9.62-24.02 10.35-23.29 10.91-22.51L10.91-22.51 11.04-22.51Q11.45-23.02 12.3-23.75 13.16-24.49 14.73-25.05 16.31-25.61 18.85-25.61ZM15.84-5.62L15.84-5.62Q18.48-5.62 19.93-7.46 21.39-9.3 21.39-12.79L21.39-12.79Q21.39-19.38 15.97-19.38L15.97-19.38Q13.67-19.38 12.57-18.44 11.47-17.5 11.01-16.46L11.01-16.46 11.01-11.16Q11.01-8.79 12.23-7.2 13.45-5.62 15.84-5.62ZM41.01 0.61L41.01 0.61Q37.42 0.61 35.31-1.4 33.2-3.42 33.2-6.96L33.2-6.96Q33.2-8.79 33.87-10.36 34.54-11.94 36.22-13.15 37.89-14.36 40.9-15.09 43.92-15.82 48.61-15.94L48.61-15.94Q48.61-18.16 47.5-19.14 46.38-20.12 44.16-20.12L44.16-20.12Q42.16-20.12 40.89-19.43 39.62-18.75 39.3-18.51L39.3-18.51Q38.96-18.21 38.47-18.29L38.47-18.29Q37.81-18.38 37.07-18.63 36.33-18.87 35.47-19.19L35.47-19.19Q35.35-19.24 35.2-19.35 35.06-19.46 35.03-19.68L35.03-19.68Q35.03-19.8 35.06-19.98 35.08-20.17 35.18-20.65L35.18-20.65Q35.28-21.14 35.47-21.86 35.67-22.58 35.84-22.97L35.84-22.97Q36.06-23.39 36.57-23.75L36.57-23.75Q36.98-24.1 39.08-24.85 41.18-25.61 45.16-25.61L45.16-25.61Q56.13-25.61 56.13-14.94L56.13-14.94 56.13-1.12Q56.13-0.66 55.87-0.33 55.61 0 55 0L55 0 51.34 0Q50.95 0 50.64-0.11 50.34-0.22 50.07-0.54L50.07-0.54 48.56-2.49 48.39-2.49Q47.26-0.85 45.37-0.12 43.48 0.61 41.01 0.61ZM43.7-5.05L43.7-5.05Q45.94-5.05 47.09-6.2 48.24-7.35 48.56-8.57L48.56-8.57 48.56-11.28Q45.16-11.28 43.47-10.75 41.77-10.23 41.21-9.39 40.65-8.54 40.65-7.57L40.65-7.57Q40.65-6.15 41.53-5.6 42.4-5.05 43.7-5.05ZM70.43-22.17L70.43-20.36 70.53-20.36Q72.36-25.44 77.12-25.44L77.12-25.44Q77.73-25.44 78.12-25.38 78.51-25.32 78.66-25.27L78.66-25.27Q79.02-25.15 79.02-24.71L79.02-24.71 79.02-18.82Q79.02-18.07 78.14-18.41L78.14-18.41Q77.85-18.53 77.3-18.66 76.75-18.8 75.78-18.8L75.78-18.8Q73.26-18.8 71.85-16.96 70.43-15.11 70.43-11.94L70.43-11.94 70.43-1.29Q70.43-0.56 70.12-0.28 69.82 0 69.09 0L69.09 0 64.06 0Q63.33 0 63.02-0.28 62.71-0.56 62.71-1.29L62.71-1.29 62.71-21.75Q62.71-22.34 62.96-22.66L62.96-22.66Q63.47-23.34 64.19-24.05 64.91-24.76 65.96-25.56L65.96-25.56Q66.16-25.71 66.35-25.76 66.55-25.81 66.69-25.81L66.69-25.81Q67.04-25.81 67.38-25.56L67.38-25.56Q69.4-23.97 70.21-22.85L70.21-22.85Q70.43-22.56 70.43-22.17L70.43-22.17ZM92.55 0.61L92.55 0.61Q84.39 0.61 84.39-7.86L84.39-7.86 84.39-19.31 81.63-19.31Q80.9-19.31 80.62-19.62 80.34-19.92 80.34-20.65L80.34-20.65 80.34-23.66Q80.34-24.39 80.62-24.69 80.9-25 81.63-25L81.63-25 84.39-25 84.39-28.93Q84.39-29.52 84.64-29.83L84.64-29.83Q85.66-31.18 87.64-32.74L87.64-32.74Q87.98-32.98 88.25-32.98L88.25-32.98Q88.54-32.98 88.84-32.74L88.84-32.74Q89.89-31.93 90.61-31.23 91.33-30.52 91.84-29.83L91.84-29.83Q92.08-29.52 92.08-28.93L92.08-28.93 92.08-25 96.4-25Q97.14-25 97.42-24.69 97.7-24.39 97.7-23.66L97.7-23.66 97.7-20.65Q97.7-19.92 97.42-19.62 97.14-19.31 96.4-19.31L96.4-19.31 92.08-19.31 92.08-9.2Q92.08-5.3 94.91-5.3L94.91-5.3Q95.35-5.3 95.72-5.38 96.09-5.47 96.35-5.57L96.35-5.57Q96.87-5.76 97.08-5.71 97.28-5.66 97.45-5.18L97.45-5.18 98.87-1.39Q99.09-0.78 98.58-0.51L98.58-0.51Q98.21-0.34 96.81 0.13 95.4 0.61 92.55 0.61ZM127.11-15.55L127.11-15.55 127.11-1.29Q127.11-0.56 126.81-0.28 126.5 0 125.77 0L125.77 0 120.74 0Q120.01 0 119.7-0.28 119.4-0.56 119.4-1.29L119.4-1.29 119.4-14.28Q119.4-16.94 118.28-18.16 117.15-19.38 115.22-19.38L115.22-19.38Q113.3-19.38 112.26-18.55 111.22-17.72 110.66-16.46L110.66-16.46 110.66-1.29Q110.66-0.56 110.35-0.28 110.05 0 109.32 0L109.32 0 104.29 0Q103.55 0 103.25-0.28 102.94-0.56 102.94-1.29L102.94-1.29 102.94-21.75Q102.94-22.34 103.19-22.66L103.19-22.66Q103.7-23.34 104.42-24.05 105.14-24.76 106.19-25.56L106.19-25.56Q106.51-25.81 106.8-25.81L106.8-25.81Q107.07-25.81 107.41-25.56L107.41-25.56Q108.44-24.76 109.17-24.02 109.9-23.29 110.46-22.51L110.46-22.51 110.59-22.51Q111-23.05 111.83-23.77 112.66-24.49 114.16-25.05 115.66-25.61 118.01-25.61L118.01-25.61Q120.3-25.61 122.38-24.68 124.45-23.75 125.78-21.56 127.11-19.36 127.11-15.55ZM145.96 0.61L145.96 0.61Q141.83 0.61 138.78-0.72 135.73-2.05 134.05-4.86 132.36-7.67 132.36-12.11L132.36-12.11Q132.36-18.77 135.78-22.19 139.2-25.61 144.86-25.61L144.86-25.61Q148.55-25.61 151.1-24.29 153.65-22.97 154.98-20.65 156.31-18.33 156.31-15.36L156.31-15.36Q156.31-12.45 154.82-11.3 153.33-10.16 150.48-10.16L150.48-10.16 140-10.16Q140.2-7.64 141.85-6.32 143.49-5 146.33-5L146.33-5Q148.57-5 149.93-5.68 151.28-6.35 151.82-6.74L151.82-6.74Q152.28-7.08 152.87-7.06L152.87-7.06Q153.33-7.06 154.2-6.87 155.07-6.69 155.92-6.2L155.92-6.2Q156.53-5.88 156.53-5.32L156.53-5.32Q156.53-5 156.41-4.42L156.41-4.42Q156.34-4.08 156.16-3.43 155.99-2.78 155.72-2.22L155.72-2.22Q155.58-1.95 155.26-1.71L155.26-1.71Q154.77-1.37 153.69-0.81 152.6-0.24 150.72 0.18 148.84 0.61 145.96 0.61ZM139.95-15.16L139.95-15.16 147.91-15.16Q149.16-15.16 149.16-16.31L149.16-16.31Q149.16-18.04 148.07-19.23 146.98-20.41 144.81-20.41L144.81-20.41Q142.44-20.41 141.33-18.9 140.22-17.38 139.95-15.16ZM169.39-22.17L169.39-20.36 169.49-20.36Q171.32-25.44 176.08-25.44L176.08-25.44Q176.69-25.44 177.08-25.38 177.48-25.32 177.62-25.27L177.62-25.27Q177.99-25.15 177.99-24.71L177.99-24.71 177.99-18.82Q177.99-18.07 177.11-18.41L177.11-18.41Q176.82-18.53 176.27-18.66 175.72-18.8 174.74-18.8L174.74-18.8Q172.23-18.8 170.81-16.96 169.39-15.11 169.39-11.94L169.39-11.94 169.39-1.29Q169.39-0.56 169.09-0.28 168.78 0 168.05 0L168.05 0 163.02 0Q162.29 0 161.98-0.28 161.68-0.56 161.68-1.29L161.68-1.29 161.68-21.75Q161.68-22.34 161.92-22.66L161.92-22.66Q162.44-23.34 163.16-24.05 163.88-24.76 164.93-25.56L164.93-25.56Q165.12-25.71 165.32-25.76 165.51-25.81 165.66-25.81L165.66-25.81Q166-25.81 166.34-25.56L166.34-25.56Q168.37-23.97 169.17-22.85L169.17-22.85Q169.39-22.56 169.39-22.17L169.39-22.17Z" opacity="1" transform="matrix(1,0,0,1,0,0)" fill="#336a86" class="wordmark-text-0" data-fill-palette-color="primary" id="text-0"></path></svg></g></svg></g></svg></g></svg></g><g><svg viewBox="0 0 244.43135999999996 160.5580075411625" height="160.5580075411625" width="244.43135999999996"><g><svg xmlns="http://www.w3.org/2000/svg" xmlns:xlink="http://www.w3.org/1999/xlink" version="1.1" x="0" y="0" viewBox="10.19999999999999 23.985999586002464 77.16159578137929 50.68462605352616" enable-background="new 0 0 100 100" xml:space="preserve" height="160.5580075411625" width="244.43135999999996" class="icon-icon-0" data-fill-palette-color="accent" id="icon-0"><path d="M15.1 61.4c1.8 0.6 2.4-2.2 3.2-1.9-1.5-0.8-3.2-1.5-5.1-2C13.3 59.1 13.2 60.8 15.1 61.4z" fill="#283132" data-fill-palette-color="accent"></path><path d="M18.7 64c-0.3 1.5 2.4 3.6 3.6 2.4 0.7-0.6 0.5-3.6 1.4-3.4 0 0 0 0 0 0-1.6-1.2-3.3-2.4-5.3-3.5C19.4 60 18.9 62.9 18.7 64z" fill="#283132" data-fill-palette-color="accent"></path><path d="M23.1 68.2c0 1.3 1.2 3.2 3.2 2.8 1.1-0.2 1.9-3.7 3-3.3 0 0 0 0 0 0-1.6-1.4-3.3-2.9-5.2-4.5C24.4 64.1 23.1 67.1 23.1 68.2z" fill="#283132" data-fill-palette-color="accent"></path><path d="M29.6 68c0.7 1.1-0.3 4.3 0.2 5.6 0.4 1 3 1.8 5.4 0 0.9-0.6 1.9-1 2.8-1.5-1-0.3-2.2-0.7-3.6-1.1C32.8 70.4 31.2 69.3 29.6 68z" fill="#283132" data-fill-palette-color="accent"></path><path d="M83.7 28.2c0 0-10.8 2.1-14.4 2.2-3.8 0.1-10.1-1.1-15.6-1.8-3.2-0.4-6.2-0.7-8.4-0.4-5 0.6-18.6 7.6-18.6 7.6-0.1 2.5 1.6 5.8 8.6 5.4 3.3-0.2 10.3-5.2 13-3.4 0.1 0.1 13.9 10.8 24.3 18.1 1.3-0.6 2.6-1.2 4-1.9 2.3-1.2 9.2-0.2 10.2-1.2C88.7 50.8 85.3 34.2 83.7 28.2z" fill="#283132" data-fill-palette-color="accent"></path><path d="M72.3 57C72 56.7 47.5 39.1 47.4 39c-1.8-1.5-8.2 3-13.4 3-6.3 0-8.7-4.1-8.6-6.6 0 0 13.6-7 18.6-7.6 2.2-0.3 5.2-0.4 8.4 0 0-0.3 0-0.5-0.2-0.8-1.2-1.9-7.2-2.8-8.8-3-4.2-0.4-15.8 7.9-21.6 8.4-1.8 0.2-7.1-3.2-7-1.4 1.4 20.6-4.6 25-4.6 25 1.2 0.2 2.3 0.4 3.3 0.7 1.9 0.5 3.6 1.2 5.1 2 0 0 0 0 0 0 0 0 0 0 0 0 2 1 5.6 3.6 5.7 3.7 1.9 1.5 5.5 4.7 5.6 4.8 3.2 2.7 6.5 3.5 8.4 4.1 4.8 1.6 4.5 1.5 7 1.5 0.8 0 4 0 3.3-3-0.3-1.2 2.8 1.9 4.3 2 1.4 0.1 4.2-1.2 3.2-4.8-0.4-1.3 4.5 2.4 5 2.4 3.3 0.1 4.8-4.3 2.8-6-0.6-0.5-2-2.2-2-2.2 0 0.3 5.4 1.9 7.4 2.2C71.2 63.7 74.5 58.8 72.3 57z" fill="#283132" data-fill-palette-color="accent"></path></svg></g></svg></g></svg></g><defs></defs></svg><rect width="395.52" height="95.60846914368624" fill="none" stroke="none" visibility="hidden"></rect></g></svg></g></svg>